LekeOld.ufo
<glyph name="percent" format="2">
  <advance width="1990"/>
  <unicode hex="0025"/>
  <outline>
    <contour>
      <point x="607" y="1112" type="curve" smooth="yes"/>
      <point x="607" y="1354"/>
      <point x="556" y="1510"/>
      <point x="431" y="1510" type="curve" smooth="yes"/>
      <point x="304" y="1510"/>
      <point x="247" y="1354"/>
      <point x="247" y="1112" type="curve" smooth="yes"/>
      <point x="247" y="870"/>
      <point x="304" y="714"/>
      <point x="431" y="714" type="curve" smooth="yes"/>
      <point x="556" y="714"/>
      <point x="607" y="870"/>
    </contour>
    <contour>
      <point x="1738" y="457" type="curve" smooth="yes"/>
      <point x="1738" y="699"/>
      <point x="1687" y="856"/>
      <point x="1562" y="856" type="curve" smooth="yes"/>
      <point x="1436" y="856"/>
      <point x="1380" y="699"/>
      <point x="1380" y="457" type="curve" smooth="yes"/>
      <point x="1380" y="213"/>
      <point x="1436" y="57"/>
      <point x="1562" y="57" type="curve" smooth="yes"/>
      <point x="1687" y="57"/>
      <point x="1738" y="213"/>
    </contour>
    <contour>
      <point x="784" y="1112" type="curve" smooth="yes"/>
      <point x="784" y="837"/>
      <point x="669" y="626"/>
      <point x="431" y="626" type="curve" smooth="yes"/>
      <point x="192" y="626"/>
      <point x="75" y="837"/>
      <point x="75" y="1112" type="curve" smooth="yes"/>
      <point x="75" y="1387"/>
      <point x="192" y="1598"/>
      <point x="431" y="1598" type="curve" smooth="yes"/>
      <point x="669" y="1598"/>
      <point x="784" y="1387"/>
    </contour>
    <contour>
      <point x="579" y="8" type="line"/>
      <point x="433" y="8" type="line"/>
      <point x="1416" y="1561" type="line"/>
      <point x="1559" y="1561" type="line"/>
    </contour>
    <contour>
      <point x="1916" y="457" type="curve" smooth="yes"/>
      <point x="1916" y="181"/>
      <point x="1799" y="-29"/>
      <point x="1562" y="-29" type="curve" smooth="yes"/>
      <point x="1323" y="-29"/>
      <point x="1206" y="181"/>
      <point x="1206" y="457" type="curve" smooth="yes"/>
      <point x="1206" y="731"/>
      <point x="1323" y="943"/>
      <point x="1562" y="943" type="curve" smooth="yes"/>
      <point x="1799" y="943"/>
      <point x="1916" y="731"/>
    </contour>
  </outline>
</glyph>
<glyph name="one" format="2">
  <advance width="1303"/>
  <unicode hex="0031"/>
  <outline>
    <contour>
      <point x="250" y="8" type="line"/>
      <point x="250" y="112" type="line"/>
      <point x="484" y="121" type="line"/>
      <point x="512" y="121"/>
      <point x="534" y="145"/>
      <point x="534" y="172" type="curve" smooth="yes"/>
      <point x="534" y="1401" type="line"/>
      <point x="176" y="1339" type="line"/>
      <point x="176" y="1443" type="line"/>
      <point x="676" y="1598" type="line"/>
      <point x="764" y="1598" type="line"/>
      <point x="764" y="172" type="line" smooth="yes"/>
      <point x="764" y="145"/>
      <point x="786" y="121"/>
      <point x="815" y="121" type="curve"/>
      <point x="1032" y="112" type="line"/>
      <point x="1032" y="8" type="line"/>
    </contour>
  </outline>
</glyph>
<glyph name="two" format="2">
  <advance width="1303"/>
  <unicode hex="0032"/>
  <outline>
    <contour>
      <point x="108" y="8" type="line"/>
      <point x="108" y="163" type="line"/>
      <point x="580" y="552"/>
      <point x="916" y="799"/>
      <point x="916" y="1123" type="curve" smooth="yes"/>
      <point x="916" y="1347"/>
      <point x="767" y="1472"/>
      <point x="585" y="1472" type="curve" smooth="yes"/>
      <point x="478" y="1472"/>
      <point x="404" y="1415"/>
      <point x="393" y="1413" type="curve"/>
      <point x="393" y="1156" type="line"/>
      <point x="385" y="1149"/>
      <point x="375" y="1142"/>
      <point x="364" y="1136" type="curve" smooth="yes"/>
      <point x="344" y="1125"/>
      <point x="315" y="1117"/>
      <point x="280" y="1117" type="curve" smooth="yes"/>
      <point x="208" y="1117"/>
      <point x="141" y="1160"/>
      <point x="141" y="1253" type="curve" smooth="yes"/>
      <point x="141" y="1448"/>
      <point x="379" y="1598"/>
      <point x="650" y="1598" type="curve" smooth="yes"/>
      <point x="952" y="1598"/>
      <point x="1166" y="1415"/>
      <point x="1166" y="1147" type="curve" smooth="yes"/>
      <point x="1166" y="819"/>
      <point x="770" y="534"/>
      <point x="354" y="202" type="curve"/>
      <point x="1040" y="202" type="line"/>
      <point x="1080" y="401" type="line"/>
      <point x="1194" y="401" type="line"/>
      <point x="1194" y="8" type="line"/>
    </contour>
  </outline>
</glyph>
<glyph name="four" format="2">
  <advance width="1303"/>
  <unicode hex="0034"/>
  <outline>
    <contour>
      <point x="797" y="1302" type="line"/>
      <point x="276" y="626" type="line"/>
      <point x="797" y="626" type="line"/>
    </contour>
    <contour>
      <point x="1014" y="469" type="line"/>
      <point x="1014" y="-29" type="line"/>
      <point x="797" y="-29" type="line"/>
      <point x="797" y="469" type="line"/>
      <point x="93" y="469" type="line"/>
      <point x="93" y="628" type="line"/>
      <point x="852" y="1598" type="line"/>
      <point x="1014" y="1598" type="line"/>
      <point x="1014" y="626" type="line"/>
      <point x="1210" y="626" type="line"/>
      <point x="1210" y="469" type="line"/>
    </contour>
  </outline>
</glyph>
<glyph name="seven" format="2">
  <advance width="1303"/>
  <unicode hex="0037"/>
  <outline>
    <contour>
      <point x="446" y="48" type="line"/>
      <point x="446" y="-29" type="line"/>
      <point x="201" y="-29" type="line"/>
      <point x="965" y="1364" type="line"/>
      <point x="252" y="1364" type="line"/>
      <point x="215" y="1154" type="line"/>
      <point x="97" y="1154" type="line"/>
      <point x="97" y="1561" type="line"/>
      <point x="1206" y="1561" type="line"/>
      <point x="1206" y="1432" type="line"/>
    </contour>
  </outline>
</glyph>
<glyph name="colon" format="2">
  <advance width="647"/>
  <unicode hex="003A"/>
  <outline>
    <contour>
      <point x="453" y="136" type="curve" smooth="yes"/>
      <point x="453" y="49"/>
      <point x="381" y="-20"/>
      <point x="296" y="-20" type="curve" smooth="yes"/>
      <point x="210" y="-20"/>
      <point x="141" y="49"/>
      <point x="141" y="136" type="curve" smooth="yes"/>
      <point x="141" y="220"/>
      <point x="210" y="291"/>
      <point x="296" y="291" type="curve" smooth="yes"/>
      <point x="381" y="291"/>
      <point x="453" y="220"/>
    </contour>
    <contour>
      <point x="453" y="996" type="curve" smooth="yes"/>
      <point x="453" y="910"/>
      <point x="381" y="841"/>
      <point x="296" y="841" type="curve" smooth="yes"/>
      <point x="210" y="841"/>
      <point x="141" y="910"/>
      <point x="141" y="996" type="curve" smooth="yes"/>
      <point x="141" y="1081"/>
      <point x="210" y="1152"/>
      <point x="296" y="1152" type="curve" smooth="yes"/>
      <point x="381" y="1152"/>
      <point x="453" y="1081"/>
    </contour>
  </outline>
</glyph>
<glyph name="semicolon" format="2">
  <advance width="647"/>
  <unicode hex="003B"/>
  <outline>
    <contour>
      <point x="477" y="31" type="curve" smooth="yes"/>
      <point x="477" y="-201"/>
      <point x="284" y="-367"/>
      <point x="75" y="-385" type="curve"/>
      <point x="75" y="-302" type="line"/>
      <point x="238" y="-265"/>
      <point x="332" y="-187"/>
      <point x="329" y="24" type="curve"/>
      <point x="183" y="24" type="line"/>
      <point x="177" y="30"/>
      <point x="141" y="69"/>
      <point x="141" y="131" type="curve" smooth="yes"/>
      <point x="141" y="211"/>
      <point x="202" y="291"/>
      <point x="285" y="291" type="curve" smooth="yes"/>
      <point x="417" y="291"/>
      <point x="477" y="179"/>
    </contour>
    <contour>
      <point x="451" y="996" type="curve" smooth="yes"/>
      <point x="451" y="910"/>
      <point x="381" y="841"/>
      <point x="296" y="841" type="curve" smooth="yes"/>
      <point x="210" y="841"/>
      <point x="141" y="910"/>
      <point x="141" y="996" type="curve" smooth="yes"/>
      <point x="141" y="1081"/>
      <point x="213" y="1152"/>
      <point x="298" y="1152" type="curve" smooth="yes"/>
      <point x="383" y="1152"/>
      <point x="451" y="1081"/>
    </contour>
  </outline>
</glyph>
<glyph name="C" format="2">
  <advance width="1451"/>
  <unicode hex="0043"/>
  <outline>
    <contour>
      <point x="1361" y="61" type="line"/>
      <point x="1349" y="56"/>
      <point x="1134" y="-29"/>
      <point x="898" y="-29" type="curve" smooth="yes"/>
      <point x="380" y="-29"/>
      <point x="90" y="363"/>
      <point x="90" y="788" type="curve" smooth="yes"/>
      <point x="90" y="1267"/>
      <point x="416" y="1598"/>
      <point x="901" y="1598" type="curve" smooth="yes"/>
      <point x="1051" y="1598"/>
      <point x="1172" y="1564"/>
      <point x="1361" y="1508" type="curve"/>
      <point x="1361" y="1145" type="line"/>
      <point x="1222" y="1145" type="line"/>
      <point x="1188" y="1355" type="line"/>
      <point x="1184" y="1376"/>
      <point x="1161" y="1400"/>
      <point x="1148" y="1408" type="curve"/>
      <point x="1114" y="1424"/>
      <point x="1025" y="1468"/>
      <point x="912" y="1468" type="curve" smooth="yes"/>
      <point x="596" y="1468"/>
      <point x="356" y="1231"/>
      <point x="356" y="788" type="curve" smooth="yes"/>
      <point x="356" y="357"/>
      <point x="577" y="98"/>
      <point x="942" y="98" type="curve" smooth="yes"/>
      <point x="1051" y="98"/>
      <point x="1124" y="135"/>
      <point x="1129" y="138" type="curve"/>
      <point x="1153" y="147"/>
      <point x="1169" y="165"/>
      <point x="1173" y="184" type="curve" smooth="yes"/>
      <point x="1226" y="436" type="line"/>
      <point x="1361" y="436" type="line"/>
    </contour>
  </outline>
</glyph>
<glyph name="F" format="2">
  <advance width="1252"/>
  <unicode hex="0046"/>
  <outline>
    <contour>
      <point x="1046" y="1193" type="line"/>
      <point x="1014" y="1406" type="line"/>
      <point x="1009" y="1429"/>
      <point x="995" y="1448"/>
      <point x="974" y="1448" type="curve" smooth="yes"/>
      <point x="481" y="1448" type="line"/>
      <point x="481" y="845" type="line"/>
      <point x="835" y="845" type="line" smooth="yes"/>
      <point x="856" y="845"/>
      <point x="874" y="871"/>
      <point x="877" y="887" type="curve"/>
      <point x="898" y="1050" type="line"/>
      <point x="1014" y="1050" type="line"/>
      <point x="1014" y="529" type="line"/>
      <point x="898" y="529" type="line"/>
      <point x="877" y="691" type="line"/>
      <point x="874" y="707"/>
      <point x="855" y="732"/>
      <point x="835" y="732" type="curve" smooth="yes"/>
      <point x="481" y="732" type="line"/>
      <point x="481" y="167" type="line" smooth="yes"/>
      <point x="481" y="144"/>
      <point x="497" y="120"/>
      <point x="530" y="116" type="curve"/>
      <point x="685" y="107" type="line"/>
      <point x="685" y="8" type="line"/>
      <point x="77" y="8" type="line"/>
      <point x="77" y="107" type="line"/>
      <point x="199" y="116" type="line"/>
      <point x="232" y="120"/>
      <point x="247" y="144"/>
      <point x="247" y="167" type="curve" smooth="yes"/>
      <point x="247" y="1401" type="line" smooth="yes"/>
      <point x="247" y="1424"/>
      <point x="232" y="1449"/>
      <point x="199" y="1452" type="curve"/>
      <point x="58" y="1461" type="line"/>
      <point x="58" y="1561" type="line"/>
      <point x="1183" y="1561" type="line"/>
      <point x="1183" y="1193" type="line"/>
    </contour>
  </outline>
</glyph>
<glyph name="I" format="2">
  <advance width="764"/>
  <unicode hex="0049"/>
  <outline>
    <contour>
      <point x="77" y="8" type="line"/>
      <point x="77" y="107" type="line"/>
      <point x="215" y="116" type="line"/>
      <point x="248" y="120"/>
      <point x="263" y="144"/>
      <point x="263" y="167" type="curve" smooth="yes"/>
      <point x="263" y="1401" type="line" smooth="yes"/>
      <point x="263" y="1424"/>
      <point x="248" y="1447"/>
      <point x="215" y="1450" type="curve"/>
      <point x="77" y="1459" type="line"/>
      <point x="77" y="1561" type="line"/>
      <point x="687" y="1561" type="line"/>
      <point x="687" y="1459" type="line"/>
      <point x="546" y="1450" type="line"/>
      <point x="514" y="1447"/>
      <point x="497" y="1424"/>
      <point x="497" y="1401" type="curve" smooth="yes"/>
      <point x="497" y="167" type="line" smooth="yes"/>
      <point x="497" y="144"/>
      <point x="514" y="120"/>
      <point x="546" y="116" type="curve"/>
      <point x="687" y="107" type="line"/>
      <point x="687" y="8" type="line"/>
    </contour>
  </outline>
</glyph>
<glyph name="K" format="2">
  <advance width="1477"/>
  <unicode hex="004B"/>
  <outline>
    <contour>
      <point x="1071" y="8" type="line"/>
      <point x="1071" y="79" type="line"/>
      <point x="641" y="697" type="line"/>
      <point x="479" y="697" type="line"/>
      <point x="479" y="167" type="line" smooth="yes"/>
      <point x="479" y="144"/>
      <point x="497" y="120"/>
      <point x="530" y="116" type="curve"/>
      <point x="662" y="107" type="line"/>
      <point x="662" y="8" type="line"/>
      <point x="75" y="8" type="line"/>
      <point x="75" y="107" type="line"/>
      <point x="197" y="116" type="line"/>
      <point x="229" y="120"/>
      <point x="245" y="144"/>
      <point x="245" y="167" type="curve" smooth="yes"/>
      <point x="245" y="1401" type="line" smooth="yes"/>
      <point x="245" y="1424"/>
      <point x="229" y="1449"/>
      <point x="197" y="1452" type="curve" smooth="yes"/>
      <point x="75" y="1461" type="line"/>
      <point x="75" y="1561" type="line"/>
      <point x="662" y="1561" type="line"/>
      <point x="662" y="1461" type="line"/>
      <point x="530" y="1452" type="line"/>
      <point x="497" y="1449"/>
      <point x="479" y="1424"/>
      <point x="479" y="1401" type="curve" smooth="yes"/>
      <point x="479" y="794" type="line"/>
      <point x="563" y="794" type="line"/>
      <point x="1067" y="1410" type="line"/>
      <point x="1078" y="1425"/>
      <point x="1064" y="1447"/>
      <point x="1049" y="1450" type="curve"/>
      <point x="930" y="1461" type="line"/>
      <point x="930" y="1561" type="line"/>
      <point x="1420" y="1561" type="line"/>
      <point x="1420" y="1461" type="line"/>
      <point x="1393" y="1459"/>
      <point x="1369" y="1456"/>
      <point x="1347" y="1453" type="curve" smooth="yes"/>
      <point x="1310" y="1449"/>
      <point x="1271" y="1444"/>
      <point x="1263" y="1443" type="curve"/>
      <point x="791" y="878" type="line"/>
      <point x="1310" y="119" type="line"/>
      <point x="1477" y="107" type="line"/>
      <point x="1477" y="8" type="line"/>
    </contour>
  </outline>
</glyph>
<glyph name="L" format="2">
  <advance width="1228"/>
  <unicode hex="004C"/>
  <outline>
    <contour>
      <point x="62" y="8" type="line"/>
      <point x="62" y="107" type="line"/>
      <point x="197" y="116" type="line"/>
      <point x="229" y="120"/>
      <point x="245" y="144"/>
      <point x="245" y="167" type="curve" smooth="yes"/>
      <point x="245" y="1401" type="line" smooth="yes"/>
      <point x="245" y="1424"/>
      <point x="229" y="1449"/>
      <point x="197" y="1452" type="curve"/>
      <point x="62" y="1461" type="line"/>
      <point x="62" y="1561" type="line"/>
      <point x="653" y="1561" type="line"/>
      <point x="653" y="1461" type="line"/>
      <point x="530" y="1452" type="line" smooth="yes"/>
      <point x="497" y="1449"/>
      <point x="479" y="1424"/>
      <point x="479" y="1401" type="curve" smooth="yes"/>
      <point x="479" y="121" type="line"/>
      <point x="965" y="121" type="line" smooth="yes"/>
      <point x="986" y="121"/>
      <point x="1013" y="140"/>
      <point x="1016" y="161" type="curve" smooth="yes"/>
      <point x="1053" y="439" type="line"/>
      <point x="1188" y="439" type="line"/>
      <point x="1188" y="8" type="line"/>
    </contour>
  </outline>
</glyph>
<glyph name="M" format="2">
  <advance width="2027"/>
  <unicode hex="004D"/>
  <outline>
    <contour>
      <point x="1372" y="8" type="line"/>
      <point x="1372" y="107" type="line"/>
      <point x="1495" y="116" type="line"/>
      <point x="1528" y="120"/>
      <point x="1546" y="144"/>
      <point x="1546" y="167" type="curve" smooth="yes"/>
      <point x="1546" y="1443" type="line"/>
      <point x="1014" y="8" type="line"/>
      <point x="898" y="8" type="line"/>
      <point x="384" y="1422" type="line"/>
      <point x="384" y="167" type="line" smooth="yes"/>
      <point x="384" y="144"/>
      <point x="402" y="120"/>
      <point x="435" y="116" type="curve"/>
      <point x="567" y="107" type="line"/>
      <point x="567" y="8" type="line"/>
      <point x="67" y="8" type="line"/>
      <point x="67" y="107" type="line"/>
      <point x="199" y="116" type="line"/>
      <point x="232" y="120"/>
      <point x="247" y="144"/>
      <point x="247" y="167" type="curve" smooth="yes"/>
      <point x="247" y="1401" type="line" smooth="yes"/>
      <point x="247" y="1424"/>
      <point x="232" y="1449"/>
      <point x="199" y="1452" type="curve"/>
      <point x="67" y="1461" type="line"/>
      <point x="67" y="1561" type="line"/>
      <point x="585" y="1561" type="line"/>
      <point x="585" y="1498" type="line"/>
      <point x="1005" y="362" type="line"/>
      <point x="1424" y="1492" type="line"/>
      <point x="1424" y="1561" type="line"/>
      <point x="1956" y="1561" type="line"/>
      <point x="1956" y="1461" type="line"/>
      <point x="1831" y="1452" type="line" smooth="yes"/>
      <point x="1798" y="1449"/>
      <point x="1780" y="1424"/>
      <point x="1780" y="1401" type="curve" smooth="yes"/>
      <point x="1780" y="167" type="line" smooth="yes"/>
      <point x="1780" y="144"/>
      <point x="1798" y="120"/>
      <point x="1831" y="116" type="curve"/>
      <point x="1956" y="107" type="line"/>
      <point x="1956" y="8" type="line"/>
    </contour>
  </outline>
</glyph>
<glyph name="O" format="2">
  <advance width="1692"/>
  <unicode hex="004F"/>
  <outline>
    <contour>
      <point x="1333" y="781" type="curve" smooth="yes"/>
      <point x="1333" y="1158"/>
      <point x="1169" y="1466"/>
      <point x="848" y="1466" type="curve" smooth="yes"/>
      <point x="512" y="1466"/>
      <point x="356" y="1154"/>
      <point x="356" y="785" type="curve" smooth="yes"/>
      <point x="356" y="415"/>
      <point x="515" y="98"/>
      <point x="842" y="98" type="curve" smooth="yes"/>
      <point x="1175" y="98"/>
      <point x="1333" y="415"/>
    </contour>
    <contour>
      <point x="1601" y="783" type="curve" smooth="yes"/>
      <point x="1601" y="334"/>
      <point x="1300" y="-29"/>
      <point x="848" y="-29" type="curve" smooth="yes"/>
      <point x="393" y="-29"/>
      <point x="90" y="320"/>
      <point x="90" y="785" type="curve" smooth="yes"/>
      <point x="90" y="1237"/>
      <point x="385" y="1598"/>
      <point x="845" y="1598" type="curve" smooth="yes"/>
      <point x="1304" y="1598"/>
      <point x="1601" y="1232"/>
    </contour>
  </outline>
</glyph>
<glyph name="U" format="2">
  <advance width="1648"/>
  <unicode hex="0055"/>
  <outline>
    <contour>
      <point x="1451" y="1452" type="line"/>
      <point x="1418" y="1449"/>
      <point x="1402" y="1424"/>
      <point x="1402" y="1401" type="curve" smooth="yes"/>
      <point x="1402" y="522" type="line" smooth="yes"/>
      <point x="1402" y="142"/>
      <point x="1195" y="-29"/>
      <point x="808" y="-29" type="curve" smooth="yes"/>
      <point x="425" y="-29"/>
      <point x="243" y="158"/>
      <point x="243" y="522" type="curve" smooth="yes"/>
      <point x="243" y="1401" type="line" smooth="yes"/>
      <point x="243" y="1424"/>
      <point x="227" y="1449"/>
      <point x="194" y="1452" type="curve" smooth="yes"/>
      <point x="71" y="1461" type="line"/>
      <point x="71" y="1561" type="line"/>
      <point x="660" y="1561" type="line"/>
      <point x="660" y="1461" type="line"/>
      <point x="528" y="1452" type="line"/>
      <point x="495" y="1449"/>
      <point x="479" y="1424"/>
      <point x="479" y="1401" type="curve" smooth="yes"/>
      <point x="479" y="582" type="line" smooth="yes"/>
      <point x="479" y="310"/>
      <point x="548" y="126"/>
      <point x="870" y="126" type="curve" smooth="yes"/>
      <point x="1190" y="126"/>
      <point x="1266" y="325"/>
      <point x="1266" y="582" type="curve" smooth="yes"/>
      <point x="1266" y="1401" type="line" smooth="yes"/>
      <point x="1266" y="1424"/>
      <point x="1248" y="1449"/>
      <point x="1215" y="1452" type="curve"/>
      <point x="1083" y="1461" type="line"/>
      <point x="1083" y="1561" type="line"/>
      <point x="1585" y="1561" type="line"/>
      <point x="1585" y="1461" type="line"/>
    </contour>
  </outline>
</glyph>
<glyph name="asciicircum" format="2">
  <advance width="757"/>
  <unicode hex="005E"/>
  <outline>
    <contour>
      <point x="618" y="1283" type="line"/>
      <point x="380" y="1512" type="line"/>
      <point x="139" y="1283" type="line"/>
      <point x="0" y="1283" type="line"/>
      <point x="292" y="1675" type="line"/>
      <point x="466" y="1675" type="line"/>
      <point x="757" y="1283" type="line"/>
    </contour>
  </outline>
</glyph>
<glyph name="a" format="2">
  <advance width="1177"/>
  <unicode hex="0061"/>
  <outline>
    <contour>
      <point x="766" y="626" type="line"/>
      <point x="349" y="522"/>
      <point x="307" y="423"/>
      <point x="307" y="309" type="curve" smooth="yes"/>
      <point x="307" y="211"/>
      <point x="372" y="116"/>
      <point x="481" y="116" type="curve" smooth="yes"/>
      <point x="544" y="116"/>
      <point x="614" y="143"/>
      <point x="670" y="171" type="curve"/>
      <point x="703" y="186"/>
      <point x="735" y="205"/>
      <point x="766" y="226" type="curve"/>
    </contour>
    <contour>
      <point x="797" y="8" type="line"/>
      <point x="766" y="145" type="line"/>
      <point x="725" y="114"/>
      <point x="684" y="86"/>
      <point x="641" y="62" type="curve" smooth="yes"/>
      <point x="564" y="20"/>
      <point x="471" y="-20"/>
      <point x="380" y="-20" type="curve" smooth="yes"/>
      <point x="211" y="-20"/>
      <point x="79" y="98"/>
      <point x="79" y="293" type="curve" smooth="yes"/>
      <point x="79" y="465"/>
      <point x="159" y="581"/>
      <point x="766" y="714" type="curve"/>
      <point x="766" y="814" type="line" smooth="yes"/>
      <point x="766" y="969"/>
      <point x="699" y="1042"/>
      <point x="550" y="1042" type="curve" smooth="yes"/>
      <point x="469" y="1042"/>
      <point x="409" y="1021"/>
      <point x="386" y="1013" type="curve"/>
      <point x="386" y="811" type="line"/>
      <point x="218" y="811" type="line" smooth="yes"/>
      <point x="176" y="811"/>
      <point x="132" y="822"/>
      <point x="132" y="878" type="curve" smooth="yes"/>
      <point x="132" y="1067"/>
      <point x="385" y="1152"/>
      <point x="614" y="1152" type="curve" smooth="yes"/>
      <point x="899" y="1152"/>
      <point x="979" y="1005"/>
      <point x="979" y="805" type="curve" smooth="yes"/>
      <point x="979" y="156" type="line" smooth="yes"/>
      <point x="979" y="128"/>
      <point x="1000" y="108"/>
      <point x="1027" y="105" type="curve"/>
      <point x="1139" y="98" type="line"/>
      <point x="1139" y="8" type="line"/>
    </contour>
  </outline>
</glyph>
<glyph name="b" format="2">
  <advance width="1285"/>
  <unicode hex="0062"/>
  <outline>
    <contour>
      <point x="970" y="573" type="curve" smooth="yes"/>
      <point x="970" y="864"/>
      <point x="839" y="1015"/>
      <point x="616" y="1015" type="curve" smooth="yes"/>
      <point x="564" y="1015"/>
      <point x="472" y="992"/>
      <point x="424" y="978" type="curve"/>
      <point x="424" y="119" type="line"/>
      <point x="437" y="118"/>
      <point x="450" y="118"/>
      <point x="463" y="118" type="curve"/>
      <point x="486" y="115"/>
      <point x="514" y="116"/>
      <point x="537" y="116" type="curve" smooth="yes"/>
      <point x="810" y="116"/>
      <point x="970" y="235"/>
    </contour>
    <contour>
      <point x="1206" y="619" type="curve" smooth="yes"/>
      <point x="1206" y="272"/>
      <point x="1006" y="8"/>
      <point x="541" y="8" type="curve" smooth="yes"/>
      <point x="208" y="8" type="line"/>
      <point x="208" y="1547" type="line"/>
      <point x="33" y="1547" type="line"/>
      <point x="33" y="1624" type="line"/>
      <point x="331" y="1713" type="line"/>
      <point x="424" y="1713" type="line"/>
      <point x="424" y="1066" type="line"/>
      <point x="476" y="1089"/>
      <point x="608" y="1152"/>
      <point x="742" y="1152" type="curve" smooth="yes"/>
      <point x="1046" y="1152"/>
      <point x="1206" y="904"/>
    </contour>
  </outline>
</glyph>
<glyph name="f" format="2">
  <advance width="755"/>
  <unicode hex="0066"/>
  <outline>
    <contour>
      <point x="901" y="1574" type="curve" smooth="yes"/>
      <point x="901" y="1483"/>
      <point x="811" y="1453"/>
      <point x="793" y="1450" type="curve"/>
      <point x="784" y="1459"/>
      <point x="586" y="1595"/>
      <point x="581" y="1600" type="curve"/>
      <point x="514" y="1565"/>
      <point x="444" y="1470"/>
      <point x="444" y="1253" type="curve" smooth="yes"/>
      <point x="444" y="1105" type="line"/>
      <point x="731" y="1105" type="line"/>
      <point x="731" y="987" type="line"/>
      <point x="444" y="987" type="line"/>
      <point x="444" y="156" type="line" smooth="yes"/>
      <point x="444" y="128"/>
      <point x="465" y="108"/>
      <point x="493" y="105" type="curve"/>
      <point x="629" y="98" type="line"/>
      <point x="629" y="8" type="line"/>
      <point x="67" y="8" type="line"/>
      <point x="67" y="98" type="line"/>
      <point x="181" y="105" type="line"/>
      <point x="208" y="108"/>
      <point x="229" y="128"/>
      <point x="229" y="156" type="curve" smooth="yes"/>
      <point x="229" y="987" type="line"/>
      <point x="81" y="987" type="line"/>
      <point x="81" y="1068" type="line"/>
      <point x="229" y="1110" type="line"/>
      <point x="229" y="1263"/>
      <point x="251" y="1345"/>
      <point x="307" y="1457" type="curve"/>
      <point x="398" y="1630"/>
      <point x="551" y="1713"/>
      <point x="702" y="1713" type="curve" smooth="yes"/>
      <point x="832" y="1713"/>
      <point x="901" y="1648"/>
    </contour>
  </outline>
</glyph>
<glyph name="g" format="2">
  <advance width="1215"/>
  <unicode hex="0067"/>
  <outline>
    <contour>
      <point x="916" y="-147" type="curve" smooth="yes"/>
      <point x="916" y="46"/>
      <point x="603" y="42"/>
      <point x="463" y="70" type="curve"/>
      <point x="328" y="22"/>
      <point x="287" y="-73"/>
      <point x="287" y="-147" type="curve" smooth="yes"/>
      <point x="287" y="-259"/>
      <point x="382" y="-416"/>
      <point x="590" y="-416" type="curve" smooth="yes"/>
      <point x="812" y="-416"/>
      <point x="916" y="-259"/>
    </contour>
    <contour>
      <point x="786" y="774" type="curve" smooth="yes"/>
      <point x="786" y="919"/>
      <point x="711" y="1057"/>
      <point x="572" y="1057" type="curve" smooth="yes"/>
      <point x="442" y="1057"/>
      <point x="351" y="951"/>
      <point x="351" y="772" type="curve" smooth="yes"/>
      <point x="351" y="618"/>
      <point x="428" y="489"/>
      <point x="572" y="489" type="curve" smooth="yes"/>
      <point x="711" y="489"/>
      <point x="786" y="617"/>
    </contour>
    <contour>
      <point x="945" y="969" type="line"/>
      <point x="980" y="913"/>
      <point x="1007" y="850"/>
      <point x="1007" y="761" type="curve" smooth="yes"/>
      <point x="1007" y="516"/>
      <point x="765" y="378"/>
      <point x="507" y="394" type="curve"/>
      <point x="473" y="336"/>
      <point x="485" y="246"/>
      <point x="488" y="240" type="curve"/>
      <point x="696" y="216"/>
      <point x="1115" y="193"/>
      <point x="1115" y="-85" type="curve" smooth="yes"/>
      <point x="1115" y="-304"/>
      <point x="850" y="-522"/>
      <point x="514" y="-522" type="curve" smooth="yes"/>
      <point x="239" y="-522"/>
      <point x="79" y="-381"/>
      <point x="79" y="-193" type="curve" smooth="yes"/>
      <point x="79" y="-59"/>
      <point x="157" y="58"/>
      <point x="324" y="87" type="curve"/>
      <point x="307" y="137"/>
      <point x="301" y="142"/>
      <point x="301" y="193" type="curve" smooth="yes"/>
      <point x="301" y="254"/>
      <point x="336" y="327"/>
      <point x="417" y="410" type="curve"/>
      <point x="263" y="447"/>
      <point x="130" y="570"/>
      <point x="130" y="758" type="curve" smooth="yes"/>
      <point x="130" y="1003"/>
      <point x="319" y="1152"/>
      <point x="594" y="1152" type="curve" smooth="yes"/>
      <point x="704" y="1152"/>
      <point x="804" y="1110"/>
      <point x="863" y="1081" type="curve"/>
      <point x="1175" y="1081" type="line"/>
      <point x="1175" y="969" type="line"/>
    </contour>
  </outline>
</glyph>
<glyph name="k" format="2">
  <advance width="1236"/>
  <unicode hex="006B"/>
  <outline>
    <contour>
      <point x="842" y="8" type="line"/>
      <point x="842" y="98" type="line"/>
      <point x="553" y="533" type="line"/>
      <point x="424" y="533" type="line"/>
      <point x="424" y="156" type="line" smooth="yes"/>
      <point x="424" y="128"/>
      <point x="444" y="108"/>
      <point x="472" y="105" type="curve"/>
      <point x="572" y="98" type="line"/>
      <point x="572" y="8" type="line"/>
      <point x="46" y="8" type="line"/>
      <point x="46" y="98" type="line"/>
      <point x="159" y="105" type="line"/>
      <point x="188" y="108"/>
      <point x="208" y="128"/>
      <point x="208" y="156" type="curve" smooth="yes"/>
      <point x="208" y="1547" type="line"/>
      <point x="33" y="1547" type="line"/>
      <point x="33" y="1624" type="line"/>
      <point x="329" y="1713" type="line"/>
      <point x="424" y="1713" type="line"/>
      <point x="424" y="600" type="line"/>
      <point x="470" y="600" type="line"/>
      <point x="810" y="984" type="line"/>
      <point x="822" y="1000"/>
      <point x="812" y="1021"/>
      <point x="791" y="1024" type="curve"/>
      <point x="696" y="1033" type="line"/>
      <point x="696" y="1123" type="line"/>
      <point x="1146" y="1123" type="line"/>
      <point x="1146" y="1033" type="line"/>
      <point x="998" y="1017" type="line"/>
      <point x="692" y="691" type="line"/>
      <point x="1090" y="112" type="line"/>
      <point x="1212" y="98" type="line"/>
      <point x="1212" y="8" type="line"/>
    </contour>
  </outline>
</glyph>
<glyph name="l" format="2">
  <advance width="687"/>
  <unicode hex="006C"/>
  <outline>
    <contour>
      <point x="62" y="8" type="line"/>
      <point x="62" y="98" type="line"/>
      <point x="185" y="105" type="line"/>
      <point x="206" y="105"/>
      <point x="236" y="133"/>
      <point x="236" y="154" type="curve" smooth="yes"/>
      <point x="236" y="1547" type="line"/>
      <point x="60" y="1547" type="line"/>
      <point x="60" y="1624" type="line"/>
      <point x="356" y="1713" type="line"/>
      <point x="451" y="1713" type="line"/>
      <point x="451" y="154" type="line" smooth="yes"/>
      <point x="451" y="133"/>
      <point x="479" y="105"/>
      <point x="499" y="105" type="curve"/>
      <point x="625" y="98" type="line"/>
      <point x="625" y="8" type="line"/>
    </contour>
  </outline>
</glyph>
<glyph name="m" format="2">
  <advance width="1967"/>
  <unicode hex="006D"/>
  <outline>
    <contour>
      <point x="1398" y="8" type="line"/>
      <point x="1398" y="98" type="line"/>
      <point x="1495" y="105" type="line"/>
      <point x="1523" y="108"/>
      <point x="1544" y="128"/>
      <point x="1544" y="156" type="curve" smooth="yes"/>
      <point x="1544" y="746" type="line" smooth="yes"/>
      <point x="1544" y="889"/>
      <point x="1493" y="982"/>
      <point x="1338" y="982" type="curve" smooth="yes"/>
      <point x="1258" y="982"/>
      <point x="1165" y="953"/>
      <point x="1090" y="918" type="curve"/>
      <point x="1090" y="156" type="line" smooth="yes"/>
      <point x="1090" y="128"/>
      <point x="1111" y="108"/>
      <point x="1139" y="105" type="curve"/>
      <point x="1236" y="98" type="line"/>
      <point x="1236" y="8" type="line"/>
      <point x="729" y="8" type="line"/>
      <point x="729" y="98" type="line"/>
      <point x="826" y="105" type="line"/>
      <point x="855" y="108"/>
      <point x="875" y="128"/>
      <point x="875" y="156" type="curve" smooth="yes"/>
      <point x="875" y="761" type="line" smooth="yes"/>
      <point x="875" y="891"/>
      <point x="820" y="982"/>
      <point x="671" y="982" type="curve" smooth="yes"/>
      <point x="583" y="982"/>
      <point x="477" y="947"/>
      <point x="424" y="915" type="curve"/>
      <point x="424" y="156" type="line" smooth="yes"/>
      <point x="424" y="128"/>
      <point x="444" y="108"/>
      <point x="472" y="105" type="curve"/>
      <point x="570" y="98" type="line"/>
      <point x="570" y="8" type="line"/>
      <point x="46" y="8" type="line"/>
      <point x="46" y="98" type="line"/>
      <point x="159" y="105" type="line"/>
      <point x="188" y="108"/>
      <point x="208" y="128"/>
      <point x="208" y="156" type="curve" smooth="yes"/>
      <point x="208" y="959" type="line"/>
      <point x="49" y="959" type="line"/>
      <point x="49" y="1035" type="line"/>
      <point x="329" y="1123" type="line"/>
      <point x="424" y="1123" type="line"/>
      <point x="424" y="1008" type="line"/>
      <point x="523" y="1071"/>
      <point x="682" y="1152"/>
      <point x="801" y="1152" type="curve" smooth="yes"/>
      <point x="933" y="1152"/>
      <point x="1017" y="1067"/>
      <point x="1055" y="991" type="curve"/>
      <point x="1149" y="1050"/>
      <point x="1335" y="1152"/>
      <point x="1458" y="1152" type="curve" smooth="yes"/>
      <point x="1700" y="1152"/>
      <point x="1756" y="954"/>
      <point x="1756" y="797" type="curve" smooth="yes"/>
      <point x="1756" y="156" type="line" smooth="yes"/>
      <point x="1756" y="128"/>
      <point x="1777" y="108"/>
      <point x="1805" y="105" type="curve"/>
      <point x="1916" y="98" type="line"/>
      <point x="1916" y="8" type="line"/>
    </contour>
  </outline>
</glyph>
<glyph name="q" format="2">
  <advance width="1270"/>
  <unicode hex="0071"/>
  <outline>
    <contour>
      <point x="861" y="1019" type="line"/>
      <point x="818" y="1028"/>
      <point x="765" y="1045"/>
      <point x="702" y="1045" type="curve" smooth="yes"/>
      <point x="449" y="1045"/>
      <point x="312" y="858"/>
      <point x="312" y="575" type="curve" smooth="yes"/>
      <point x="312" y="338"/>
      <point x="412" y="116"/>
      <point x="662" y="116" type="curve" smooth="yes"/>
      <point x="721" y="116"/>
      <point x="809" y="135"/>
      <point x="861" y="149" type="curve"/>
    </contour>
    <contour>
      <point x="676" y="-496" type="line"/>
      <point x="676" y="-409" type="line"/>
      <point x="812" y="-397" type="line"/>
      <point x="840" y="-393"/>
      <point x="861" y="-376"/>
      <point x="861" y="-348" type="curve" smooth="yes"/>
      <point x="861" y="70" type="line"/>
      <point x="776" y="29"/>
      <point x="639" y="-20"/>
      <point x="537" y="-20" type="curve" smooth="yes"/>
      <point x="251" y="-20"/>
      <point x="79" y="230"/>
      <point x="79" y="538" type="curve" smooth="yes"/>
      <point x="79" y="914"/>
      <point x="326" y="1152"/>
      <point x="748" y="1152" type="curve" smooth="yes"/>
      <point x="833" y="1152"/>
      <point x="978" y="1136"/>
      <point x="1076" y="1114" type="curve"/>
      <point x="1076" y="-348" type="line" smooth="yes"/>
      <point x="1076" y="-376"/>
      <point x="1097" y="-392"/>
      <point x="1124" y="-397" type="curve"/>
      <point x="1236" y="-409" type="line"/>
      <point x="1236" y="-496" type="line"/>
    </contour>
  </outline>
</glyph>
<glyph name="t" format="2">
  <advance width="786"/>
  <unicode hex="0074"/>
  <outline>
    <contour>
      <point x="771" y="57" type="line"/>
      <point x="742" y="42"/>
      <point x="711" y="29"/>
      <point x="677" y="18" type="curve" smooth="yes"/>
      <point x="620" y="-2"/>
      <point x="542" y="-20"/>
      <point x="459" y="-20" type="curve" smooth="yes"/>
      <point x="284" y="-20"/>
      <point x="210" y="56"/>
      <point x="210" y="240" type="curve" smooth="yes"/>
      <point x="210" y="1008" type="line"/>
      <point x="62" y="1008" type="line"/>
      <point x="62" y="1084" type="line"/>
      <point x="220" y="1158" type="line"/>
      <point x="324" y="1404" type="line"/>
      <point x="426" y="1404" type="line"/>
      <point x="426" y="1123" type="line"/>
      <point x="753" y="1123" type="line"/>
      <point x="753" y="1008" type="line"/>
      <point x="426" y="1008" type="line"/>
      <point x="426" y="362" type="line" smooth="yes"/>
      <point x="426" y="178"/>
      <point x="489" y="110"/>
      <point x="611" y="110" type="curve" smooth="yes"/>
      <point x="656" y="110"/>
      <point x="696" y="118"/>
      <point x="724" y="129" type="curve" smooth="yes"/>
      <point x="741" y="135"/>
      <point x="756" y="142"/>
      <point x="771" y="149" type="curve"/>
    </contour>
  </outline>
</glyph>
<glyph name="w" format="2">
  <advance width="1813"/>
  <unicode hex="0077"/>
  <outline>
    <contour>
      <point x="1671" y="1019" type="line"/>
      <point x="1354" y="8" type="line"/>
      <point x="1190" y="8" type="line"/>
      <point x="916" y="874" type="line"/>
      <point x="611" y="8" type="line"/>
      <point x="446" y="8" type="line"/>
      <point x="150" y="1019" type="line"/>
      <point x="23" y="1033" type="line"/>
      <point x="23" y="1123" type="line"/>
      <point x="530" y="1123" type="line"/>
      <point x="530" y="1033" type="line"/>
      <point x="421" y="1026" type="line"/>
      <point x="396" y="1023"/>
      <point x="379" y="1000"/>
      <point x="386" y="975" type="curve" smooth="yes"/>
      <point x="579" y="255" type="line"/>
      <point x="877" y="1123" type="line"/>
      <point x="1042" y="1123" type="line"/>
      <point x="1310" y="255" type="line"/>
      <point x="1523" y="975" type="line"/>
      <point x="1531" y="999"/>
      <point x="1517" y="1023"/>
      <point x="1490" y="1026" type="curve"/>
      <point x="1384" y="1033" type="line"/>
      <point x="1384" y="1123" type="line"/>
      <point x="1789" y="1123" type="line"/>
      <point x="1789" y="1033" type="line"/>
    </contour>
  </outline>
</glyph>
<glyph name="bar" format="2">
  <advance width="818"/>
  <unicode hex="007C"/>
  <outline>
    <contour>
      <point x="339" y="-589" type="line"/>
      <point x="339" y="1850" type="line"/>
      <point x="479" y="1850" type="line"/>
      <point x="479" y="-589" type="line"/>
    </contour>
  </outline>
</glyph>
<glyph name="braceright" format="2">
  <advance width="1129"/>
  <unicode hex="007D"/>
  <outline>
    <contour>
      <point x="991" y="628" type="line"/>
      <point x="856" y="628"/>
      <point x="778" y="619"/>
      <point x="722" y="566" type="curve" smooth="yes"/>
      <point x="668" y="514"/>
      <point x="658" y="411"/>
      <point x="658" y="322" type="curve" smooth="yes"/>
      <point x="658" y="123" type="line" smooth="yes"/>
      <point x="658" y="14"/>
      <point x="638" y="-94"/>
      <point x="563" y="-175" type="curve"/>
      <point x="485" y="-256"/>
      <point x="325" y="-277"/>
      <point x="159" y="-277" type="curve"/>
      <point x="159" y="-182" type="line"/>
      <point x="198" y="-182"/>
      <point x="338" y="-175"/>
      <point x="396" y="-112" type="curve" smooth="yes"/>
      <point x="460" y="-43"/>
      <point x="451" y="102"/>
      <point x="451" y="231" type="curve" smooth="yes"/>
      <point x="451" y="336"/>
      <point x="455" y="470"/>
      <point x="519" y="547" type="curve"/>
      <point x="579" y="627"/>
      <point x="669" y="661"/>
      <point x="764" y="681" type="curve"/>
      <point x="670" y="702"/>
      <point x="578" y="734"/>
      <point x="519" y="814" type="curve"/>
      <point x="455" y="891"/>
      <point x="451" y="1025"/>
      <point x="451" y="1130" type="curve" smooth="yes"/>
      <point x="451" y="1260"/>
      <point x="460" y="1403"/>
      <point x="396" y="1472" type="curve" smooth="yes"/>
      <point x="338" y="1535"/>
      <point x="198" y="1543"/>
      <point x="159" y="1543" type="curve"/>
      <point x="159" y="1637" type="line"/>
      <point x="326" y="1637"/>
      <point x="483" y="1616"/>
      <point x="563" y="1536" type="curve"/>
      <point x="638" y="1455"/>
      <point x="658" y="1347"/>
      <point x="658" y="1236" type="curve" smooth="yes"/>
      <point x="658" y="1039" type="line" smooth="yes"/>
      <point x="658" y="949"/>
      <point x="668" y="846"/>
      <point x="722" y="794" type="curve" smooth="yes"/>
      <point x="778" y="742"/>
      <point x="856" y="732"/>
      <point x="991" y="732" type="curve"/>
    </contour>
  </outline>
</glyph>
<glyph name="asciitilde" format="2">
  <advance width="1928"/>
  <unicode hex="007E"/>
  <outline>
    <contour>
      <point x="1729" y="717" type="line"/>
      <point x="1551" y="592"/>
      <point x="1427" y="554"/>
      <point x="1294" y="554" type="curve" smooth="yes"/>
      <point x="1074" y="554"/>
      <point x="863" y="710"/>
      <point x="625" y="710" type="curve" smooth="yes"/>
      <point x="508" y="710"/>
      <point x="354" y="642"/>
      <point x="199" y="529" type="curve"/>
      <point x="199" y="679" type="line"/>
      <point x="364" y="796"/>
      <point x="514" y="843"/>
      <point x="638" y="843" type="curve" smooth="yes"/>
      <point x="865" y="843"/>
      <point x="1095" y="688"/>
      <point x="1296" y="688" type="curve" smooth="yes"/>
      <point x="1407" y="688"/>
      <point x="1544" y="732"/>
      <point x="1729" y="867" type="curve"/>
    </contour>
  </outline>
</glyph>
<glyph name="plusminus" format="2">
  <advance width="1373"/>
  <unicode hex="00B1"/>
  <outline>
    <contour>
      <point x="1253" y="1039" type="curve"/>
      <point x="1139" y="1146" type="line"/>
      <point x="1007" y="1116"/>
      <point x="718" y="774"/>
      <point x="686" y="513" type="curve"/>
      <point x="654" y="774"/>
      <point x="377" y="1105"/>
      <point x="234" y="1146" type="curve"/>
      <point x="120" y="1039" type="line"/>
      <point x="501" y="857"/>
      <point x="619" y="250"/>
      <point x="608" y="0" type="curve"/>
      <point x="608" y="-1"/>
      <point x="764" y="0"/>
      <point x="764" y="0" type="curve"/>
      <point x="764" y="243"/>
      <point x="854" y="833"/>
    </contour>
  </outline>
  <guideline angle="90" x="-1751" y="0"/>
</glyph>
<glyph name="twosuperior" format="2">
  <advance width="1020"/>
  <unicode hex="00B2"/>
  <outline>
    <contour>
      <point x="801" y="1293" type="line"/>
      <point x="462" y="897" type="line"/>
      <point x="234" y="1146" type="line"/>
      <point x="120" y="1039" type="line"/>
      <point x="370" y="770" type="line"/>
      <point x="336" y="722"/>
      <point x="166" y="490"/>
      <point x="166" y="264" type="curve" smooth="yes"/>
      <point x="166" y="43"/>
      <point x="378" y="-20"/>
      <point x="509" y="-20" type="curve"/>
      <point x="664" y="-20"/>
      <point x="851" y="68"/>
      <point x="851" y="264" type="curve"/>
      <point x="851" y="490"/>
      <point x="655" y="683"/>
      <point x="565" y="779" type="curve"/>
      <point x="911" y="1188" type="line"/>
    </contour>
    <contour>
      <point x="695" y="261" type="curve" smooth="yes"/>
      <point x="695" y="177"/>
      <point x="600" y="136"/>
      <point x="509" y="136" type="curve" smooth="yes"/>
      <point x="415" y="136"/>
      <point x="322" y="180"/>
      <point x="322" y="264" type="curve" smooth="yes"/>
      <point x="322" y="355"/>
      <point x="352" y="499"/>
      <point x="473" y="648" type="curve"/>
      <point x="580" y="542"/>
      <point x="695" y="395"/>
    </contour>
  </outline>
  <guideline angle="90" x="-1926" y="0"/>
</glyph>
<glyph name="threesuperior" format="2">
  <advance width="1407"/>
  <unicode hex="00B3"/>
  <outline>
    <contour>
      <point x="1031" y="1152" type="curve" smooth="yes"/>
      <point x="808" y="1152"/>
      <point x="753" y="909"/>
      <point x="754" y="778" type="curve"/>
      <point x="754" y="657"/>
      <point x="754" y="410"/>
      <point x="754" y="305" type="curve" smooth="yes"/>
      <point x="754" y="251"/>
      <point x="744" y="136"/>
      <point x="623" y="136" type="curve" smooth="yes"/>
      <point x="505" y="136"/>
      <point x="492" y="249"/>
      <point x="492" y="305" type="curve" smooth="yes"/>
      <point x="492" y="373"/>
      <point x="492" y="604"/>
      <point x="492" y="716" type="curve" smooth="yes"/>
      <point x="492" y="887"/>
      <point x="467" y="1022"/>
      <point x="266" y="1022" type="curve" smooth="yes"/>
      <point x="220" y="1022"/>
      <point x="185" y="1017"/>
      <point x="120" y="986" type="curve"/>
      <point x="123" y="984"/>
      <point x="184" y="847"/>
      <point x="184" y="847" type="curve"/>
      <point x="211" y="858"/>
      <point x="222" y="866"/>
      <point x="266" y="866" type="curve" smooth="yes"/>
      <point x="330" y="866"/>
      <point x="336" y="801"/>
      <point x="336" y="716" type="curve" smooth="yes"/>
      <point x="336" y="590"/>
      <point x="336" y="377"/>
      <point x="336" y="285" type="curve" smooth="yes"/>
      <point x="336" y="129"/>
      <point x="380" y="-20"/>
      <point x="623" y="-20" type="curve" smooth="yes"/>
      <point x="875" y="-20"/>
      <point x="910" y="129"/>
      <point x="910" y="285" type="curve" smooth="yes"/>
      <point x="910" y="444"/>
      <point x="910" y="443"/>
      <point x="910" y="677" type="curve" smooth="yes"/>
      <point x="910" y="957"/>
      <point x="962" y="996"/>
      <point x="1031" y="996" type="curve" smooth="yes"/>
      <point x="1087" y="996"/>
      <point x="1130" y="940"/>
      <point x="1130" y="856" type="curve"/>
      <point x="1131" y="856"/>
      <point x="1287" y="856"/>
      <point x="1286" y="856" type="curve"/>
      <point x="1286" y="979"/>
      <point x="1217" y="1152"/>
    </contour>
  </outline>
  <guideline angle="90" x="-2043" y="0"/>
</glyph>
<glyph name="mu" format="2">
  <advance width="1233"/>
  <unicode hex="00B5"/>
  <unicode hex="03BC"/>
  <outline>
    <contour>
      <point x="933" y="1294" type="line"/>
      <point x="899" y="1251"/>
      <point x="799" y="1143"/>
      <point x="680" y="1011" type="curve"/>
      <point x="647" y="1096"/>
      <point x="570" y="1152"/>
      <point x="438" y="1152" type="curve" smooth="yes"/>
      <point x="283" y="1152"/>
      <point x="188" y="1023"/>
      <point x="188" y="923" type="curve" smooth="yes"/>
      <point x="188" y="844"/>
      <point x="223" y="755"/>
      <point x="298" y="715" type="curve"/>
      <point x="396" y="840" type="line"/>
      <point x="361" y="861"/>
      <point x="344" y="883"/>
      <point x="344" y="923" type="curve" smooth="yes"/>
      <point x="344" y="955"/>
      <point x="376" y="996"/>
      <point x="438" y="996" type="curve" smooth="yes"/>
      <point x="507" y="996"/>
      <point x="551" y="940"/>
      <point x="551" y="868" type="curve" smooth="yes"/>
      <point x="551" y="863" type="line"/>
      <point x="339" y="620"/>
      <point x="122" y="346"/>
      <point x="121" y="234" type="curve" smooth="yes"/>
      <point x="118" y="-27"/>
      <point x="333" y="-20"/>
      <point x="394" y="-20" type="curve" smooth="yes"/>
      <point x="525" y="-20"/>
      <point x="705" y="59"/>
      <point x="705" y="317" type="curve" smooth="yes"/>
      <point x="705" y="448"/>
      <point x="701" y="644"/>
      <point x="700" y="803" type="curve"/>
      <point x="834" y="956"/>
      <point x="967" y="1101"/>
      <point x="1043" y="1185" type="curve"/>
    </contour>
    <contour>
      <point x="394" y="136" type="curve" smooth="yes"/>
      <point x="330" y="136"/>
      <point x="277" y="138"/>
      <point x="277" y="232" type="curve" smooth="yes"/>
      <point x="277" y="288"/>
      <point x="400" y="451"/>
      <point x="551" y="630" type="curve"/>
      <point x="551" y="326" type="line" smooth="yes"/>
      <point x="551" y="191"/>
      <point x="446" y="136"/>
    </contour>
  </outline>
  <guideline angle="90" x="-2204" y="0"/>
  <guideline angle="90" x="-752" y="0"/>
</glyph>
<glyph name="periodcentered" format="2">
  <advance width="1598"/>
  <unicode hex="00B7"/>
  <anchor x="548" y="-128" name="L"/>
  <anchor x="548" y="1260" name="U"/>
  <outline>
    <contour>
      <point x="826" y="0" type="curve"/>
      <point x="794" y="185"/>
      <point x="811" y="996"/>
      <point x="568" y="996" type="curve" smooth="yes"/>
      <point x="386" y="996"/>
      <point x="276" y="796"/>
      <point x="276" y="560" type="curve" smooth="yes"/>
      <point x="276" y="536"/>
      <point x="282" y="262"/>
      <point x="432" y="106" type="curve"/>
      <point x="414" y="82"/>
      <point x="364" y="16"/>
      <point x="340" y="-20" type="curve"/>
      <point x="168" y="154"/>
      <point x="120" y="378"/>
      <point x="120" y="566" type="curve" smooth="yes"/>
      <point x="120" y="886"/>
      <point x="302" y="1152"/>
      <point x="568" y="1152" type="curve" smooth="yes"/>
      <point x="809" y="1152"/>
      <point x="900" y="890"/>
      <point x="930" y="582" type="curve"/>
      <point x="1022" y="868"/>
      <point x="1226" y="1099"/>
      <point x="1364" y="1146" type="curve"/>
      <point x="1478" y="1039" type="line"/>
      <point x="1092" y="850"/>
      <point x="978" y="276"/>
      <point x="982" y="0" type="curve" smooth="yes"/>
      <point x="982" y="-1"/>
      <point x="830" y="0"/>
    </contour>
  </outline>
</glyph>
<glyph name="cedilla" format="2">
  <advance width="1364"/>
  <unicode hex="00B8"/>
  <outline>
    <contour>
      <point x="1244" y="1019" type="curve"/>
      <point x="1137" y="905" type="line"/>
      <point x="1044" y="1004"/>
      <point x="1001" y="996"/>
      <point x="976" y="996" type="curve" smooth="yes"/>
      <point x="906" y="996"/>
      <point x="783" y="906"/>
      <point x="737" y="811" type="curve"/>
      <point x="939" y="551"/>
      <point x="985" y="379"/>
      <point x="985" y="264" type="curve" smooth="yes"/>
      <point x="985" y="62"/>
      <point x="793" y="-20"/>
      <point x="642" y="-20" type="curve" smooth="yes"/>
      <point x="531" y="-20"/>
      <point x="299" y="33"/>
      <point x="299" y="264" type="curve" smooth="yes"/>
      <point x="299" y="423"/>
      <point x="382" y="593"/>
      <point x="547" y="811" type="curve"/>
      <point x="513" y="880"/>
      <point x="444" y="996"/>
      <point x="375" y="996" type="curve" smooth="yes"/>
      <point x="319" y="996"/>
      <point x="276" y="940"/>
      <point x="276" y="856" type="curve" smooth="yes"/>
      <point x="276" y="803"/>
      <point x="300" y="743"/>
      <point x="320" y="725" type="curve"/>
      <point x="184" y="654" type="line"/>
      <point x="154" y="673"/>
      <point x="120" y="778"/>
      <point x="120" y="856" type="curve" smooth="yes"/>
      <point x="120" y="979"/>
      <point x="188" y="1153"/>
      <point x="375" y="1152" type="curve" smooth="yes"/>
      <point x="488" y="1151"/>
      <point x="557" y="1092"/>
      <point x="642" y="949" type="curve"/>
      <point x="744" y="1092"/>
      <point x="880" y="1152"/>
      <point x="976" y="1152" type="curve" smooth="yes"/>
      <point x="1104" y="1152"/>
      <point x="1177" y="1090"/>
    </contour>
    <contour>
      <point x="455" y="264" type="curve" smooth="yes"/>
      <point x="455" y="180"/>
      <point x="558" y="136"/>
      <point x="642" y="136" type="curve" smooth="yes"/>
      <point x="723" y="136"/>
      <point x="829" y="177"/>
      <point x="829" y="261" type="curve" smooth="yes"/>
      <point x="829" y="414"/>
      <point x="727" y="564"/>
      <point x="642" y="677" type="curve"/>
      <point x="594" y="619"/>
      <point x="455" y="422"/>
    </contour>
  </outline>
  <guideline angle="90" x="-1786" y="0"/>
</glyph>
<glyph name="onesuperior" format="2">
  <advance width="1719"/>
  <unicode hex="00B9"/>
  <anchor x="608" y="-128" name="L"/>
  <anchor x="608" y="1260" name="U"/>
  <outline>
    <contour>
      <point x="1559" y="591" type="curve" smooth="yes"/>
      <point x="1559" y="837"/>
      <point x="1371" y="1028"/>
      <point x="1163" y="1028" type="curve" smooth="yes"/>
      <point x="819" y="1028"/>
      <point x="768" y="309"/>
      <point x="556" y="309" type="curve" smooth="yes"/>
      <point x="430" y="309"/>
      <point x="316" y="426"/>
      <point x="316" y="590" type="curve"/>
      <point x="306" y="711"/>
      <point x="396" y="872"/>
      <point x="557" y="872" type="curve"/>
      <point x="557" y="1028" type="line"/>
      <point x="376" y="1025"/>
      <point x="160" y="894"/>
      <point x="160" y="590" type="curve" smooth="yes"/>
      <point x="160" y="344"/>
      <point x="338" y="153"/>
      <point x="556" y="153" type="curve" smooth="yes"/>
      <point x="900" y="153"/>
      <point x="951" y="872"/>
      <point x="1163" y="872" type="curve" smooth="yes"/>
      <point x="1279" y="872"/>
      <point x="1403" y="755"/>
      <point x="1403" y="591" type="curve" smooth="yes"/>
      <point x="1403" y="420"/>
      <point x="1296" y="313"/>
      <point x="1162" y="309" type="curve"/>
      <point x="1162" y="153" type="line"/>
      <point x="1402" y="153"/>
      <point x="1559" y="349"/>
    </contour>
  </outline>
</glyph>
<glyph name="Aacute" format="2">
  <advance width="1069"/>
  <unicode hex="00C1"/>
  <outline>
    <contour>
      <point x="231" y="0" type="line"/>
      <point x="1029" y="1132" type="line"/>
      <point x="838" y="1132" type="line"/>
      <point x="40" y="0" type="line"/>
    </contour>
  </outline>
</glyph>
<glyph name="Acircumflex" format="2">
  <advance width="1172"/>
  <unicode hex="00C2"/>
  <guideline x="0" y="836" angle="0"/>
  <guideline x="-756" y="0" angle="90"/>
  <outline>
    <contour>
      <point x="586" y="456" type="line"/>
      <point x="273" y="0" type="line"/>
      <point x="100" y="0" type="line"/>
      <point x="100" y="1132" type="line"/>
      <point x="273" y="1134" type="line"/>
      <point x="586" y="678" type="line"/>
      <point x="899" y="1134" type="line"/>
      <point x="1072" y="1132" type="line"/>
      <point x="1072" y="0" type="line"/>
      <point x="899" y="0" type="line"/>
    </contour>
    <contour>
      <point x="256" y="250" type="line"/>
      <point x="480" y="566" type="line"/>
      <point x="256" y="882" type="line"/>
    </contour>
    <contour>
      <point x="916" y="882" type="line"/>
      <point x="692" y="566" type="line"/>
      <point x="916" y="250" type="line"/>
    </contour>
  </outline>
</glyph>
<glyph name="Adieresis" format="2">
  <advance width="1220"/>
  <unicode hex="00C4"/>
  <outline>
    <contour>
      <point x="1080" y="976" type="line"/>
      <point x="338" y="156" type="line"/>
      <point x="1100" y="156" type="line"/>
      <point x="1100" y="0" type="line"/>
      <point x="120" y="0" type="line"/>
      <point x="120" y="156" type="line"/>
      <point x="862" y="976" type="line"/>
      <point x="170" y="976" type="line"/>
      <point x="170" y="1132" type="line"/>
      <point x="1080" y="1128" type="line"/>
    </contour>
  </outline>
</glyph>
<glyph name="Ccedilla" format="2">
  <advance width="995"/>
  <unicode hex="00C7"/>
  <anchor x="323" y="429" name="U"/>
  <anchor x="323" y="-44" name="L"/>
  <outline>
    <contour>
      <point x="469" y="-20" type="curve" smooth="yes"/>
      <point x="644" y="-20"/>
      <point x="772" y="116"/>
      <point x="772" y="306" type="curve" smooth="yes"/>
      <point x="772" y="344"/>
      <point x="772" y="346"/>
      <point x="772" y="392" type="curve"/>
      <point x="875" y="392" type="line"/>
      <point x="875" y="548" type="line"/>
      <point x="616" y="548" type="line"/>
      <point x="616" y="316" type="line" smooth="yes"/>
      <point x="616" y="252"/>
      <point x="605" y="136"/>
      <point x="469" y="136" type="curve" smooth="yes"/>
      <point x="333" y="136"/>
      <point x="276" y="231"/>
      <point x="276" y="315" type="curve" smooth="yes"/>
      <point x="276" y="346"/>
      <point x="276" y="776"/>
      <point x="275" y="804" type="curve" smooth="yes"/>
      <point x="271" y="931"/>
      <point x="363" y="996"/>
      <point x="469" y="996" type="curve" smooth="yes"/>
      <point x="562" y="996"/>
      <point x="616" y="940"/>
      <point x="637" y="890" type="curve"/>
      <point x="638" y="890"/>
      <point x="760" y="978"/>
      <point x="763" y="978" type="curve"/>
      <point x="722" y="1046"/>
      <point x="631" y="1152"/>
      <point x="469" y="1152" type="curve" smooth="yes"/>
      <point x="277" y="1152"/>
      <point x="120" y="1030"/>
      <point x="120" y="808" type="curve" smooth="yes"/>
      <point x="120" y="315" type="line" smooth="yes"/>
      <point x="120" y="176"/>
      <point x="207" y="-20"/>
    </contour>
  </outline>
</glyph>
<glyph name="Igrave" format="2">
  <advance width="914"/>
  <unicode hex="00CC"/>
  <anchor x="268" y="409" name="U"/>
  <anchor x="268" y="-41" name="L"/>
  <outline>
    <contour>
      <point x="310" y="654" type="line"/>
      <point x="480" y="681"/>
      <point x="604" y="676"/>
      <point x="604" y="836" type="curve" smooth="yes"/>
      <point x="604" y="963"/>
      <point x="525" y="996"/>
      <point x="457" y="996" type="curve" smooth="yes"/>
      <point x="414" y="996"/>
      <point x="313" y="976"/>
      <point x="253" y="867" type="curve"/>
      <point x="120" y="948" type="line"/>
      <point x="175" y="1087"/>
      <point x="330" y="1152"/>
      <point x="457" y="1152" type="curve" smooth="yes"/>
      <point x="623" y="1152"/>
      <point x="760" y="1023"/>
      <point x="760" y="836" type="curve" smooth="yes"/>
      <point x="760" y="739"/>
      <point x="724" y="662"/>
      <point x="670" y="607" type="curve"/>
      <point x="745" y="545"/>
      <point x="794" y="449"/>
      <point x="794" y="332" type="curve" smooth="yes"/>
      <point x="794" y="112"/>
      <point x="626" y="-20"/>
      <point x="457" y="-20" type="curve" smooth="yes"/>
      <point x="316" y="-20"/>
      <point x="175" y="51"/>
      <point x="120" y="182" type="curve"/>
      <point x="253" y="265" type="line"/>
      <point x="289" y="201"/>
      <point x="365" y="136"/>
      <point x="457" y="136" type="curve" smooth="yes"/>
      <point x="540" y="136"/>
      <point x="641" y="190"/>
      <point x="641" y="332" type="curve" smooth="yes"/>
      <point x="641" y="532"/>
      <point x="434" y="551"/>
      <point x="349" y="502" type="curve"/>
    </contour>
  </outline>
</glyph>
<glyph name="Idieresis" format="2">
  <advance width="957"/>
  <unicode hex="00CF"/>
  <outline>
    <contour>
      <point x="717" y="543" type="line"/>
      <point x="715" y="670"/>
      <point x="611" y="789"/>
      <point x="513" y="789" type="curve" smooth="yes"/>
      <point x="435" y="789"/>
      <point x="319" y="783"/>
      <point x="208" y="645" type="curve"/>
      <point x="120" y="712" type="line"/>
      <point x="431" y="1152" type="line"/>
      <point x="531" y="1085" type="line"/>
      <point x="401" y="900" type="line"/>
      <point x="428" y="906"/>
      <point x="476" y="909"/>
      <point x="513" y="909" type="curve" smooth="yes"/>
      <point x="673" y="909"/>
      <point x="831" y="744"/>
      <point x="837" y="543" type="curve"/>
    </contour>
    <contour>
      <point x="717" y="0" type="line"/>
      <point x="715" y="127"/>
      <point x="611" y="246"/>
      <point x="513" y="246" type="curve" smooth="yes"/>
      <point x="435" y="246"/>
      <point x="319" y="240"/>
      <point x="208" y="102" type="curve"/>
      <point x="120" y="169" type="line"/>
      <point x="431" y="609" type="line"/>
      <point x="531" y="542" type="line"/>
      <point x="401" y="357" type="line"/>
      <point x="428" y="363"/>
      <point x="476" y="366"/>
      <point x="513" y="366" type="curve" smooth="yes"/>
      <point x="673" y="366"/>
      <point x="831" y="201"/>
      <point x="837" y="0" type="curve"/>
    </contour>
  </outline>
</glyph>
<glyph name="Oacute" format="2">
  <advance width="1262"/>
  <unicode hex="00D3"/>
  <outline>
    <contour>
      <point x="652" y="866" type="curve" smooth="yes"/>
      <point x="652" y="737"/>
      <point x="550" y="602"/>
      <point x="386" y="602" type="curve" smooth="yes"/>
      <point x="234" y="602"/>
      <point x="115" y="738"/>
      <point x="120" y="868" type="curve"/>
      <point x="115" y="998"/>
      <point x="234" y="1133"/>
      <point x="386" y="1133" type="curve" smooth="yes"/>
      <point x="1153" y="1133" type="line"/>
      <point x="1153" y="1013" type="line"/>
      <point x="610" y="1013" type="line"/>
      <point x="636" y="974"/>
      <point x="652" y="914"/>
    </contour>
    <contour>
      <point x="240" y="866" type="curve" smooth="yes"/>
      <point x="240" y="785"/>
      <point x="309" y="722"/>
      <point x="386" y="722" type="curve" smooth="yes"/>
      <point x="465" y="722"/>
      <point x="532" y="785"/>
      <point x="532" y="866" type="curve" smooth="yes"/>
      <point x="532" y="926"/>
      <point x="480" y="1013"/>
      <point x="386" y="1013" type="curve" smooth="yes"/>
      <point x="309" y="1013"/>
      <point x="240" y="950"/>
    </contour>
    <contour>
      <point x="652" y="244" type="curve" smooth="yes"/>
      <point x="652" y="115"/>
      <point x="550" y="-20"/>
      <point x="386" y="-20" type="curve" smooth="yes"/>
      <point x="234" y="-20"/>
      <point x="115" y="116"/>
      <point x="120" y="246" type="curve"/>
      <point x="115" y="376"/>
      <point x="234" y="511"/>
      <point x="386" y="511" type="curve" smooth="yes"/>
      <point x="1153" y="511" type="line"/>
      <point x="1153" y="391" type="line"/>
      <point x="610" y="391" type="line"/>
      <point x="636" y="352"/>
      <point x="652" y="292"/>
    </contour>
    <contour>
      <point x="240" y="244" type="curve" smooth="yes"/>
      <point x="240" y="163"/>
      <point x="309" y="100"/>
      <point x="386" y="100" type="curve" smooth="yes"/>
      <point x="465" y="100"/>
      <point x="532" y="163"/>
      <point x="532" y="244" type="curve" smooth="yes"/>
      <point x="532" y="304"/>
      <point x="480" y="391"/>
      <point x="386" y="391" type="curve" smooth="yes"/>
      <point x="309" y="391"/>
      <point x="240" y="328"/>
    </contour>
  </outline>
</glyph>
<glyph name="aacute" format="2">
  <advance width="688"/>
  <unicode hex="00E1"/>
  <outline>
    <contour>
      <point x="451" y="917" type="curve" smooth="yes"/>
      <point x="451" y="853"/>
      <point x="400" y="804"/>
      <point x="344" y="804" type="curve" smooth="yes"/>
      <point x="290" y="804"/>
      <point x="239" y="853"/>
      <point x="239" y="917" type="curve" smooth="yes"/>
      <point x="239" y="982"/>
      <point x="292" y="1030"/>
      <point x="344" y="1030" type="curve" smooth="yes"/>
      <point x="401" y="1030"/>
      <point x="451" y="982"/>
    </contour>
    <contour>
      <point x="120" y="917" type="curve" smooth="yes"/>
      <point x="120" y="789"/>
      <point x="218" y="683"/>
      <point x="344" y="683" type="curve" smooth="yes"/>
      <point x="470" y="683"/>
      <point x="568" y="789"/>
      <point x="568" y="917" type="curve" smooth="yes"/>
      <point x="568" y="1045"/>
      <point x="473" y="1152"/>
      <point x="344" y="1152" type="curve" smooth="yes"/>
      <point x="222" y="1152"/>
      <point x="120" y="1045"/>
    </contour>
    <contour>
      <point x="120" y="214" type="curve" smooth="yes"/>
      <point x="120" y="86"/>
      <point x="218" y="-20"/>
      <point x="344" y="-20" type="curve" smooth="yes"/>
      <point x="470" y="-20"/>
      <point x="568" y="86"/>
      <point x="568" y="214" type="curve" smooth="yes"/>
      <point x="568" y="342"/>
      <point x="473" y="449"/>
      <point x="344" y="449" type="curve" smooth="yes"/>
      <point x="222" y="449"/>
      <point x="120" y="342"/>
    </contour>
    <contour>
      <point x="451" y="214" type="curve" smooth="yes"/>
      <point x="451" y="150"/>
      <point x="400" y="101"/>
      <point x="344" y="101" type="curve" smooth="yes"/>
      <point x="290" y="101"/>
      <point x="239" y="150"/>
      <point x="239" y="214" type="curve" smooth="yes"/>
      <point x="239" y="279"/>
      <point x="292" y="327"/>
      <point x="344" y="327" type="curve" smooth="yes"/>
      <point x="401" y="327"/>
      <point x="451" y="279"/>
    </contour>
  </outline>
</glyph>
<glyph name="adieresis" format="2">
  <advance width="256"/>
  <unicode hex="00E4"/>
  <anchor x="600" y="-84" name="L"/>
  <anchor x="600" y="832" name="U"/>
  <outline>
    <contour>
      <point x="810" y="-1001" type="curve" smooth="yes"/>
      <point x="534" y="-1001"/>
      <point x="203" y="-850"/>
      <point x="100" y="-536" type="curve"/>
      <point x="100" y="1630" type="line"/>
      <point x="193" y="1934"/>
      <point x="534" y="2095"/>
      <point x="810" y="2095" type="curve" smooth="yes"/>
      <point x="1136" y="2095"/>
      <point x="1511" y="1876"/>
      <point x="1511" y="1560" type="curve" smooth="yes"/>
      <point x="1511" y="1525"/>
      <point x="1504" y="1486"/>
      <point x="1491" y="1449" type="curve"/>
      <point x="1492" y="1449"/>
      <point x="1349" y="1513"/>
      <point x="1349" y="1513" type="curve"/>
      <point x="1353" y="1528"/>
      <point x="1355" y="1544"/>
      <point x="1355" y="1560" type="curve" smooth="yes"/>
      <point x="1355" y="1745"/>
      <point x="1098" y="1939"/>
      <point x="810" y="1939" type="curve" smooth="yes"/>
      <point x="580" y="1939"/>
      <point x="324" y="1806"/>
      <point x="256" y="1597" type="curve"/>
      <point x="256" y="-503" type="line"/>
      <point x="324" y="-712"/>
      <point x="580" y="-845"/>
      <point x="810" y="-845" type="curve"/>
      <point x="1098" y="-845"/>
      <point x="1355" y="-651"/>
      <point x="1355" y="-466" type="curve" smooth="yes"/>
      <point x="1355" y="-450"/>
      <point x="1353" y="-434"/>
      <point x="1349" y="-419" type="curve"/>
      <point x="1349" y="-419"/>
      <point x="1492" y="-355"/>
      <point x="1491" y="-355" type="curve"/>
      <point x="1504" y="-392"/>
      <point x="1511" y="-431"/>
      <point x="1511" y="-466" type="curve" smooth="yes"/>
      <point x="1511" y="-782"/>
      <point x="1136" y="-1001"/>
    </contour>
  </outline>
</glyph>
<glyph name="eacute" format="2">
  <unicode hex="00E9"/>
  <outline>
    <contour>
      <point x="-528" y="1921" type="line"/>
      <point x="81" y="1921" type="line"/>
      <point x="81" y="1801" type="line"/>
      <point x="-412" y="1801" type="line"/>
      <point x="-400" y="1784"/>
      <point x="-369" y="1727"/>
      <point x="-369" y="1638" type="curve" smooth="yes"/>
      <point x="-369" y="1459"/>
      <point x="-507" y="1311"/>
      <point x="-682" y="1311" type="curve"/>
      <point x="-848" y="1311"/>
      <point x="-996" y="1459"/>
      <point x="-996" y="1638" type="curve"/>
      <point x="-996" y="1763"/>
      <point x="-923" y="1870"/>
      <point x="-845" y="1921" type="curve"/>
      <point x="-835" y="1901"/>
      <point x="-787" y="1816"/>
      <point x="-787" y="1816" type="curve"/>
      <point x="-834" y="1788"/>
      <point x="-876" y="1707"/>
      <point x="-876" y="1638" type="curve" smooth="yes"/>
      <point x="-876" y="1551"/>
      <point x="-801" y="1431"/>
      <point x="-682" y="1431" type="curve" smooth="yes"/>
      <point x="-551" y="1431"/>
      <point x="-489" y="1551"/>
      <point x="-489" y="1638" type="curve" smooth="yes"/>
      <point x="-489" y="1707"/>
      <point x="-524" y="1785"/>
      <point x="-587" y="1816" type="curve"/>
    </contour>
  </outline>
</glyph>
<glyph name="ecircumflex" format="2">
  <unicode hex="00EA"/>
  <anchor x="304" y="-9" name="L"/>
  <anchor x="304" y="611" name="U"/>
  <outline>
    <contour>
      <point x="-704" y="1207" type="line"/>
      <point x="-807" y="1147" type="line"/>
      <point x="-995" y="1498" type="line"/>
      <point x="-889" y="1556" type="line"/>
      <point x="-837" y="1459"/>
      <point x="-769" y="1431"/>
      <point x="-682" y="1431" type="curve"/>
      <point x="-559" y="1431"/>
      <point x="-490" y="1530"/>
      <point x="-490" y="1637" type="curve"/>
      <point x="-490" y="1745"/>
      <point x="-569" y="1844"/>
      <point x="-682" y="1844" type="curve" smooth="yes"/>
      <point x="-769" y="1844"/>
      <point x="-837" y="1816"/>
      <point x="-889" y="1719" type="curve"/>
      <point x="-995" y="1777" type="line"/>
      <point x="-944" y="1899"/>
      <point x="-813" y="1964"/>
      <point x="-682" y="1964" type="curve"/>
      <point x="-523" y="1964"/>
      <point x="-370" y="1830"/>
      <point x="-370" y="1637" type="curve" smooth="yes"/>
      <point x="-370" y="1433"/>
      <point x="-536" y="1311"/>
      <point x="-682" y="1311" type="curve"/>
      <point x="-723" y="1311"/>
      <point x="-727" y="1312"/>
      <point x="-766" y="1320" type="curve"/>
    </contour>
  </outline>
</glyph>
<glyph name="edieresis" format="2">
  <unicode hex="00EB"/>
  <anchor x="231" y="264" name="U"/>
  <anchor x="231" y="-206" name="L"/>
  <outline>
    <contour>
      <point x="-688" y="-509" type="line"/>
      <point x="-710" y="-520"/>
      <point x="-742" y="-521"/>
      <point x="-780" y="-521" type="curve" smooth="yes"/>
      <point x="-889" y="-521"/>
      <point x="-974" y="-476"/>
      <point x="-1021" y="-433" type="curve"/>
      <point x="-1004" y="-282"/>
      <point x="-825" y="-190"/>
      <point x="-682" y="-190" type="curve" smooth="yes"/>
      <point x="-498" y="-190"/>
      <point x="-329" y="-336"/>
      <point x="-329" y="-546" type="curve" smooth="yes"/>
      <point x="-329" y="-768"/>
      <point x="-512" y="-901"/>
      <point x="-682" y="-901" type="curve" smooth="yes"/>
      <point x="-825" y="-901"/>
      <point x="-994" y="-821"/>
      <point x="-1021" y="-658" type="curve"/>
      <point x="-955" y="-600"/>
      <point x="-863" y="-569"/>
      <point x="-776" y="-569" type="curve" smooth="yes"/>
      <point x="-695" y="-569"/>
      <point x="-627" y="-599"/>
      <point x="-568" y="-646" type="curve"/>
      <point x="-637" y="-721" type="line"/>
      <point x="-661" y="-703"/>
      <point x="-705" y="-674"/>
      <point x="-776" y="-674" type="curve" smooth="yes"/>
      <point x="-796" y="-674"/>
      <point x="-840" y="-680"/>
      <point x="-867" y="-698" type="curve"/>
      <point x="-837" y="-742"/>
      <point x="-776" y="-781"/>
      <point x="-682" y="-781" type="curve" smooth="yes"/>
      <point x="-519" y="-781"/>
      <point x="-450" y="-660"/>
      <point x="-450" y="-546" type="curve" smooth="yes"/>
      <point x="-450" y="-428"/>
      <point x="-519" y="-310"/>
      <point x="-682" y="-310" type="curve" smooth="yes"/>
      <point x="-776" y="-310"/>
      <point x="-834" y="-348"/>
      <point x="-866" y="-393" type="curve"/>
      <point x="-846" y="-409"/>
      <point x="-803" y="-417"/>
      <point x="-780" y="-417" type="curve" smooth="yes"/>
      <point x="-758" y="-417"/>
      <point x="-735" y="-416"/>
      <point x="-716" y="-410" type="curve"/>
    </contour>
  </outline>
</glyph>
<glyph name="iacute" format="2">
  <advance width="1208"/>
  <unicode hex="00ED"/>
  <outline>
    <contour>
      <point x="371" y="968" type="curve"/>
      <point x="371" y="828"/>
      <point x="443" y="683"/>
      <point x="604" y="683" type="curve" smooth="yes"/>
      <point x="725" y="683"/>
      <point x="828" y="776"/>
      <point x="828" y="917" type="curve" smooth="yes"/>
      <point x="828" y="1007"/>
      <point x="764" y="1152"/>
      <point x="604" y="1152" type="curve" smooth="yes"/>
      <point x="583" y="1152"/>
      <point x="552" y="1149"/>
      <point x="519" y="1134" type="curve"/>
      <point x="553" y="1237"/>
      <point x="622" y="1339"/>
      <point x="746" y="1384" type="curve"/>
      <point x="685" y="1492" type="line"/>
      <point x="448" y="1376"/>
      <point x="378" y="1167"/>
    </contour>
    <contour>
      <point x="380" y="214" type="curve" smooth="yes"/>
      <point x="380" y="86"/>
      <point x="478" y="-20"/>
      <point x="604" y="-20" type="curve" smooth="yes"/>
      <point x="730" y="-20"/>
      <point x="828" y="86"/>
      <point x="828" y="214" type="curve" smooth="yes"/>
      <point x="828" y="342"/>
      <point x="733" y="449"/>
      <point x="604" y="449" type="curve" smooth="yes"/>
      <point x="482" y="449"/>
      <point x="380" y="342"/>
    </contour>
    <contour>
      <point x="120" y="506" type="line"/>
      <point x="1088" y="506" type="line"/>
      <point x="1088" y="626" type="line"/>
      <point x="120" y="626" type="line"/>
    </contour>
    <contour>
      <point x="604" y="1030" type="curve" smooth="yes"/>
      <point x="646" y="1030"/>
      <point x="711" y="997"/>
      <point x="711" y="917" type="curve" smooth="yes"/>
      <point x="711" y="871"/>
      <point x="676" y="804"/>
      <point x="604" y="804" type="curve" smooth="yes"/>
      <point x="547" y="804"/>
      <point x="499" y="854"/>
      <point x="499" y="918" type="curve" smooth="yes"/>
      <point x="499" y="995"/>
      <point x="565" y="1030"/>
    </contour>
    <contour>
      <point x="711" y="214" type="curve" smooth="yes"/>
      <point x="711" y="150"/>
      <point x="660" y="101"/>
      <point x="604" y="101" type="curve" smooth="yes"/>
      <point x="550" y="101"/>
      <point x="499" y="150"/>
      <point x="499" y="214" type="curve" smooth="yes"/>
      <point x="499" y="279"/>
      <point x="552" y="327"/>
      <point x="604" y="327" type="curve" smooth="yes"/>
      <point x="661" y="327"/>
      <point x="711" y="279"/>
    </contour>
  </outline>
</glyph>
<glyph name="icircumflex" format="2">
  <advance width="1208"/>
  <unicode hex="00EE"/>
  <outline>
    <contour>
      <point x="711" y="917" type="curve" smooth="yes"/>
      <point x="711" y="853"/>
      <point x="660" y="804"/>
      <point x="604" y="804" type="curve" smooth="yes"/>
      <point x="550" y="804"/>
      <point x="499" y="853"/>
      <point x="499" y="917" type="curve" smooth="yes"/>
      <point x="499" y="982"/>
      <point x="552" y="1030"/>
      <point x="604" y="1030" type="curve" smooth="yes"/>
      <point x="661" y="1030"/>
      <point x="711" y="982"/>
    </contour>
    <contour>
      <point x="380" y="917" type="curve" smooth="yes"/>
      <point x="380" y="789"/>
      <point x="478" y="683"/>
      <point x="604" y="683" type="curve" smooth="yes"/>
      <point x="730" y="683"/>
      <point x="828" y="789"/>
      <point x="828" y="917" type="curve" smooth="yes"/>
      <point x="828" y="1045"/>
      <point x="733" y="1152"/>
      <point x="604" y="1152" type="curve" smooth="yes"/>
      <point x="482" y="1152"/>
      <point x="380" y="1045"/>
    </contour>
    <contour>
      <point x="380" y="214" type="curve" smooth="yes"/>
      <point x="380" y="86"/>
      <point x="478" y="-20"/>
      <point x="604" y="-20" type="curve" smooth="yes"/>
      <point x="730" y="-20"/>
      <point x="828" y="86"/>
      <point x="828" y="214" type="curve" smooth="yes"/>
      <point x="828" y="342"/>
      <point x="733" y="449"/>
      <point x="604" y="449" type="curve" smooth="yes"/>
      <point x="482" y="449"/>
      <point x="380" y="342"/>
    </contour>
    <contour>
      <point x="711" y="214" type="curve" smooth="yes"/>
      <point x="711" y="150"/>
      <point x="660" y="101"/>
      <point x="604" y="101" type="curve" smooth="yes"/>
      <point x="550" y="101"/>
      <point x="499" y="150"/>
      <point x="499" y="214" type="curve" smooth="yes"/>
      <point x="499" y="279"/>
      <point x="552" y="327"/>
      <point x="604" y="327" type="curve" smooth="yes"/>
      <point x="661" y="327"/>
      <point x="711" y="279"/>
    </contour>
    <contour>
      <point x="120" y="506" type="line"/>
      <point x="1088" y="506" type="line"/>
      <point x="1088" y="626" type="line"/>
      <point x="120" y="626" type="line"/>
    </contour>
  </outline>
</glyph>
<glyph name="idieresis" format="2">
  <advance width="1208"/>
  <unicode hex="00EF"/>
  <outline>
    <contour>
      <point x="120" y="506" type="line"/>
      <point x="1088" y="506" type="line"/>
      <point x="1088" y="626" type="line"/>
      <point x="120" y="626" type="line"/>
    </contour>
    <contour>
      <point x="380" y="214" type="curve" smooth="yes"/>
      <point x="380" y="86"/>
      <point x="478" y="-20"/>
      <point x="604" y="-20" type="curve" smooth="yes"/>
      <point x="730" y="-20"/>
      <point x="828" y="86"/>
      <point x="828" y="214" type="curve" smooth="yes"/>
      <point x="828" y="342"/>
      <point x="733" y="449"/>
      <point x="604" y="449" type="curve" smooth="yes"/>
      <point x="482" y="449"/>
      <point x="380" y="342"/>
    </contour>
    <contour>
      <point x="711" y="214" type="curve" smooth="yes"/>
      <point x="711" y="150"/>
      <point x="660" y="101"/>
      <point x="604" y="101" type="curve" smooth="yes"/>
      <point x="550" y="101"/>
      <point x="499" y="150"/>
      <point x="499" y="214" type="curve" smooth="yes"/>
      <point x="499" y="279"/>
      <point x="552" y="327"/>
      <point x="604" y="327" type="curve" smooth="yes"/>
      <point x="661" y="327"/>
      <point x="711" y="279"/>
    </contour>
    <contour>
      <point x="758" y="1292" type="line"/>
      <point x="1388" y="1292" type="line"/>
      <point x="1388" y="1172" type="line"/>
      <point x="874" y="1173" type="line"/>
      <point x="886" y="1156"/>
      <point x="917" y="1098"/>
      <point x="917" y="1009" type="curve" smooth="yes"/>
      <point x="917" y="830"/>
      <point x="779" y="682"/>
      <point x="604" y="682" type="curve" smooth="yes"/>
      <point x="438" y="682"/>
      <point x="290" y="830"/>
      <point x="290" y="1009" type="curve" smooth="yes"/>
      <point x="290" y="1134"/>
      <point x="363" y="1241"/>
      <point x="441" y="1292" type="curve"/>
      <point x="451" y="1272"/>
      <point x="499" y="1187"/>
      <point x="499" y="1187" type="curve"/>
      <point x="452" y="1159"/>
      <point x="410" y="1078"/>
      <point x="410" y="1009" type="curve" smooth="yes"/>
      <point x="410" y="922"/>
      <point x="485" y="802"/>
      <point x="604" y="802" type="curve" smooth="yes"/>
      <point x="735" y="802"/>
      <point x="797" y="922"/>
      <point x="797" y="1009" type="curve" smooth="yes"/>
      <point x="797" y="1078"/>
      <point x="762" y="1156"/>
      <point x="699" y="1187" type="curve"/>
    </contour>
  </outline>
</glyph>
<glyph name="Oacute_alt" format="2">
  <advance width="1147"/>
  <outline>
    <contour>
      <point x="1027" y="1013" type="line"/>
      <point x="1027" y="1133" type="line"/>
      <point x="389" y="1132" type="line" smooth="yes"/>
      <point x="229" y="1132"/>
      <point x="120" y="1002"/>
      <point x="120" y="862" type="curve" smooth="yes"/>
      <point x="120" y="723"/>
      <point x="234" y="594"/>
      <point x="379" y="593" type="curve"/>
      <point x="504" y="591"/>
      <point x="605" y="675"/>
      <point x="605" y="788" type="curve" smooth="yes"/>
      <point x="605" y="826"/>
      <point x="595" y="866"/>
      <point x="572" y="894" type="curve"/>
      <point x="476" y="827" type="line"/>
      <point x="485" y="815"/>
      <point x="485" y="800"/>
      <point x="485" y="788" type="curve" smooth="yes"/>
      <point x="485" y="739"/>
      <point x="439" y="713"/>
      <point x="379" y="713" type="curve" smooth="yes"/>
      <point x="301" y="713"/>
      <point x="240" y="786"/>
      <point x="240" y="862" type="curve" smooth="yes"/>
      <point x="240" y="922"/>
      <point x="291" y="1013"/>
      <point x="373" y="1013" type="curve" smooth="yes"/>
    </contour>
    <contour>
      <point x="1027" y="400" type="line"/>
      <point x="1027" y="520" type="line"/>
      <point x="389" y="519" type="line" smooth="yes"/>
      <point x="229" y="519"/>
      <point x="120" y="389"/>
      <point x="120" y="249" type="curve" smooth="yes"/>
      <point x="120" y="110"/>
      <point x="234" y="-19"/>
      <point x="379" y="-20" type="curve"/>
      <point x="504" y="-22"/>
      <point x="605" y="62"/>
      <point x="605" y="175" type="curve" smooth="yes"/>
      <point x="605" y="213"/>
      <point x="595" y="253"/>
      <point x="572" y="281" type="curve"/>
      <point x="476" y="214" type="line"/>
      <point x="485" y="202"/>
      <point x="485" y="187"/>
      <point x="485" y="175" type="curve" smooth="yes"/>
      <point x="485" y="126"/>
      <point x="439" y="100"/>
      <point x="379" y="100" type="curve" smooth="yes"/>
      <point x="301" y="100"/>
      <point x="240" y="173"/>
      <point x="240" y="249" type="curve" smooth="yes"/>
      <point x="240" y="309"/>
      <point x="291" y="400"/>
      <point x="373" y="400" type="curve" smooth="yes"/>
    </contour>
  </outline>
</glyph>
